<?xml version="1.0" encoding="UTF-8"?>
<svg xmlns="http://www.w3.org/2000/svg" xmlns:xlink="http://www.w3.org/1999/xlink" viewBox="0 0 500 500" width="500px" height="500px">
<g id="surface1396241">
<path style=" stroke:none;fill-rule:nonzero;fill:rgb(59.215689%,78.039217%,100%);fill-opacity:1;" d="M 436.074219 283.550781 C 441.75 272.773438 445 260.523438 445 247.5 C 445 214.394531 424.203125 186.214844 394.996094 175.109375 C 394.996094 175.074219 395 175.039062 395 175 C 395 117.011719 347.988281 70 290 70 C 241.078125 70 200.09375 103.503906 188.433594 148.785156 C 181.054688 146.359375 173.191406 145 165 145 C 126.539062 145 94.886719 173.964844 90.550781 211.261719 C 64.53125 216.765625 45 239.84375 45 267.5 C 45 299.253906 70.746094 325 102.5 325 C 103.386719 325 104.261719 324.941406 105.128906 324.890625 C 105.109375 325.765625 105 326.621094 105 327.5 C 105 384.109375 150.890625 430 207.5 430 C 239.683594 430 268.375 415.140625 287.171875 391.929688 C 298.058594 403.054688 313.199219 410 330 410 C 353.25 410 373.371094 396.75 383.328125 377.410156 C 388.589844 379.085938 394.183594 380 400 380 C 430.375 380 455 355.375 455 325 C 455 308.445312 447.648438 293.636719 436.074219 283.550781 Z M 436.074219 283.550781 "/>
<path style=" stroke:none;fill-rule:nonzero;fill:rgb(99.215686%,98.823529%,93.725491%);fill-opacity:1;" d="M 419.375 227.5 C 419.375 227.5 437.574219 227.5 450 227.5 C 462.425781 227.5 472.5 217.425781 472.5 205 C 472.5 193.335938 463.589844 183.855469 452.226562 182.726562 C 452.335938 181.820312 452.5 180.933594 452.5 180 C 452.5 167.574219 442.425781 157.5 430 157.5 C 422.808594 157.5 416.484375 160.929688 412.363281 166.179688 C 411.664062 153 400.855469 142.5 387.5 142.5 C 373.695312 142.5 362.5 153.695312 362.5 167.5 C 362.5 169.730469 362.886719 171.851562 363.433594 173.910156 C 360.226562 170.023438 355.429688 167.5 350 167.5 C 341.09375 167.5 333.828125 174.175781 332.726562 182.773438 C 331.820312 182.664062 330.933594 182.5 330 182.5 C 317.574219 182.5 307.5 192.574219 307.5 205 C 307.5 217.425781 317.574219 227.5 330 227.5 C 342.425781 227.5 377.5 227.5 377.5 227.5 L 404.375 227.5 L 404.375 230 L 419.375 230 Z M 419.375 227.5 "/>
<path style=" stroke:none;fill-rule:nonzero;fill:rgb(27.843139%,16.862746%,16.078432%);fill-opacity:1;" d="M 387.5 140 C 372.335938 140 360 152.335938 360 167.5 C 360 167.578125 360 167.65625 360 167.734375 C 356.988281 165.960938 353.550781 165 350 165 C 340.84375 165 332.945312 171.304688 330.710938 180.023438 C 330.476562 180.011719 330.238281 180 330 180 C 316.214844 180 305 191.214844 305 205 C 305 218.785156 316.214844 230 330 230 L 404.375 230 C 405.753906 230 406.875 228.878906 406.875 227.5 C 406.875 226.121094 405.753906 225 404.375 225 L 330 225 C 318.96875 225 310 216.03125 310 205 C 310 193.96875 318.96875 185 330 185 C 330.585938 185 331.148438 185.085938 331.714844 185.160156 L 332.421875 185.253906 C 332.523438 185.269531 332.625 185.273438 332.730469 185.273438 C 333.960938 185.273438 335.039062 184.351562 335.203125 183.089844 C 336.160156 175.625 342.519531 170 350 170 C 354.425781 170 358.613281 172.003906 361.503906 175.5 C 361.996094 176.089844 362.710938 176.410156 363.433594 176.410156 C 363.824219 176.410156 364.214844 176.320312 364.574219 176.128906 C 365.621094 175.59375 366.144531 174.398438 365.84375 173.265625 C 365.269531 171.089844 365 169.261719 365 167.5 C 365 155.09375 375.09375 145 387.5 145 C 399.40625 145 409.234375 154.359375 409.871094 166.316406 C 409.925781 167.355469 410.621094 168.25 411.613281 168.566406 C 411.863281 168.644531 412.121094 168.683594 412.375 168.683594 C 413.125 168.683594 413.855469 168.339844 414.335938 167.726562 C 418.191406 162.816406 423.894531 160 430 160 C 441.03125 160 450 168.96875 450 180 C 450 180.585938 449.914062 181.148438 449.839844 181.714844 L 449.746094 182.421875 C 449.664062 183.089844 449.855469 183.761719 450.273438 184.285156 C 450.695312 184.808594 451.308594 185.144531 451.976562 185.210938 C 462.253906 186.234375 470 194.746094 470 205 C 470 216.03125 461.03125 225 450 225 L 419.375 225 C 417.996094 225 416.875 226.121094 416.875 227.5 C 416.875 228.878906 417.996094 230 419.375 230 L 450 230 C 463.785156 230 475 218.785156 475 205 C 475 193.015625 466.554688 182.933594 454.984375 180.613281 C 454.996094 180.410156 455 180.203125 455 180 C 455 166.214844 443.785156 155 430 155 C 424.121094 155 418.535156 157.078125 414.085938 160.820312 C 411.09375 148.800781 400.273438 140 387.5 140 Z M 387.5 140 "/>
<path style=" stroke:none;fill-rule:nonzero;fill:rgb(27.843139%,16.862746%,16.078432%);fill-opacity:1;" d="M 380 175 C 372.984375 175 366.953125 179.996094 365.433594 186.703125 C 363.601562 185.59375 361.503906 185 359.375 185 C 353.363281 185 348.386719 189.484375 347.609375 195.339844 C 346.59375 195.109375 345.628906 195 344.691406 195 C 337.046875 195 330.636719 201 330.101562 208.660156 C 330.050781 209.351562 330.570312 209.949219 331.253906 210 C 331.285156 210 331.316406 210 331.34375 210 C 331.996094 210 332.546875 209.496094 332.589844 208.839844 C 333.035156 202.484375 338.34375 197.5 344.683594 197.5 C 345.828125 197.5 347.035156 197.710938 348.375 198.136719 C 348.484375 198.171875 348.601562 198.183594 348.710938 198.183594 C 348.984375 198.183594 349.261719 198.085938 349.488281 197.914062 C 349.808594 197.683594 350 197.273438 350 196.875 C 350 191.703125 354.203125 187.5 359.375 187.5 C 361.609375 187.5 363.800781 188.339844 365.53125 189.863281 C 365.765625 190.070312 366.058594 190.179688 366.355469 190.179688 C 366.515625 190.179688 366.671875 190.148438 366.820312 190.085938 C 367.261719 189.910156 367.558594 189.5 367.59375 189.023438 C 368.113281 182.558594 373.558594 177.5 380 177.5 C 381.039062 177.5 382.125 177.671875 383.410156 178.035156 C 383.523438 178.070312 383.644531 178.085938 383.761719 178.085938 C 384.304688 178.085938 384.796875 177.71875 384.953125 177.175781 C 385.144531 176.511719 384.761719 175.820312 384.09375 175.628906 C 382.585938 175.199219 381.28125 175 380 175 Z M 449.414062 182.5 C 442.785156 182.5 436.875 186.984375 435.046875 193.410156 C 434.855469 194.074219 435.238281 194.765625 435.90625 194.953125 C 436.023438 194.984375 436.140625 195 436.25 195 C 436.796875 195 437.296875 194.640625 437.449219 194.089844 C 438.976562 188.738281 443.894531 185 449.414062 185 C 450 185 450.566406 185.070312 451.125 185.144531 C 451.183594 185.15625 451.238281 185.160156 451.300781 185.160156 C 451.90625 185.160156 452.445312 184.699219 452.53125 184.074219 C 452.625 183.390625 452.144531 182.761719 451.460938 182.671875 C 450.789062 182.578125 450.109375 182.5 449.414062 182.5 Z M 449.414062 182.5 "/>
<path style=" stroke:none;fill-rule:nonzero;fill:rgb(100%,100%,100%);fill-opacity:1;" d="M 77.023438 240 L 27.5 240 C 26.121094 240 25 238.878906 25 237.5 C 25 236.121094 26.121094 235 27.5 235 L 77.023438 235 C 78.40625 235 79.523438 236.121094 79.523438 237.5 C 79.523438 238.878906 78.410156 240 77.023438 240 Z M 92.5 240 L 87.5 240 C 86.121094 240 85 238.878906 85 237.5 C 85 236.121094 86.121094 235 87.5 235 L 92.5 235 C 93.878906 235 95 236.121094 95 237.5 C 95 238.878906 93.886719 240 92.5 240 Z M 117.453125 250 L 72.5 250 C 71.121094 250 70 248.878906 70 247.5 C 70 246.121094 71.121094 245 72.5 245 L 117.453125 245 C 118.835938 245 119.953125 246.121094 119.953125 247.5 C 119.953125 248.878906 118.835938 250 117.453125 250 Z M 62.5 250 L 57.5 250 C 56.121094 250 55 248.878906 55 247.5 C 55 246.121094 56.121094 245 57.5 245 L 62.5 245 C 63.878906 245 65 246.121094 65 247.5 C 65 248.878906 63.886719 250 62.5 250 Z M 47.5 250 L 37.5 250 C 36.121094 250 35 248.878906 35 247.5 C 35 246.121094 36.121094 245 37.5 245 L 47.5 245 C 48.878906 245 50 246.121094 50 247.5 C 50 248.878906 48.886719 250 47.5 250 Z M 77.5 260 L 67.5 260 C 66.121094 260 65 258.878906 65 257.5 C 65 256.121094 66.121094 255 67.5 255 L 77.5 255 C 78.878906 255 80 256.121094 80 257.5 C 80 258.878906 78.878906 260 77.5 260 Z M 92.5 215 C 91.613281 215 88.386719 215 87.5 215 C 86.121094 215 85 216.121094 85 217.5 C 85 218.878906 86.121094 220 87.5 220 C 88.386719 220 91.613281 220 92.5 220 C 93.878906 220 95 218.878906 95 217.5 C 95 216.121094 93.878906 215 92.5 215 Z M 92.5 225 C 91.613281 225 68.386719 225 67.5 225 C 66.121094 225 65 226.121094 65 227.5 C 65 228.878906 66.121094 230 67.5 230 C 68.386719 230 91.613281 230 92.5 230 C 93.878906 230 95 228.878906 95 227.5 C 95 226.121094 93.878906 225 92.5 225 Z M 117.5 235 C 116.613281 235 103.386719 235 102.5 235 C 101.121094 235 100 236.121094 100 237.5 C 100 238.878906 101.121094 240 102.5 240 C 103.386719 240 116.613281 240 117.5 240 C 118.878906 240 120 238.878906 120 237.5 C 120 236.121094 118.878906 235 117.5 235 Z M 117.5 235 "/>
<path style=" stroke:none;fill-rule:nonzero;fill:rgb(100%,100%,100%);fill-opacity:1;" d="M 337.5 105 L 287.5 105 C 286.121094 105 285 103.878906 285 102.5 C 285 101.121094 286.121094 100 287.5 100 L 337.5 100 C 338.878906 100 340 101.121094 340 102.5 C 340 103.878906 338.878906 105 337.5 105 Z M 357.5 105 L 347.5 105 C 346.121094 105 345 103.878906 345 102.5 C 345 101.121094 346.121094 100 347.5 100 L 357.5 100 C 358.878906 100 360 101.121094 360 102.5 C 360 103.878906 358.878906 105 357.5 105 Z M 382.5 115 L 332.5 115 C 331.121094 115 330 113.878906 330 112.5 C 330 111.121094 331.121094 110 332.5 110 L 382.5 110 C 383.878906 110 385 111.121094 385 112.5 C 385 113.878906 383.886719 115 382.5 115 Z M 322.5 115 L 317.5 115 C 316.121094 115 315 113.878906 315 112.5 C 315 111.121094 316.121094 110 317.5 110 L 322.5 110 C 323.878906 110 325 111.121094 325 112.5 C 325 113.878906 323.878906 115 322.5 115 Z M 306.875 115 L 297.5 115 C 296.121094 115 295 113.878906 295 112.5 C 295 111.121094 296.121094 110 297.5 110 L 306.875 110 C 308.253906 110 309.375 111.121094 309.375 112.5 C 309.375 113.878906 308.253906 115 306.875 115 Z M 352.5 95 L 327.5 95 C 326.121094 95 325 93.878906 325 92.5 C 325 91.121094 326.121094 90 327.5 90 L 352.5 90 C 353.878906 90 355 91.121094 355 92.5 C 355 93.878906 353.886719 95 352.5 95 Z M 337.5 125 L 327.5 125 C 326.121094 125 325 123.878906 325 122.5 C 325 121.121094 326.121094 120 327.5 120 L 337.5 120 C 338.878906 120 340 121.121094 340 122.5 C 340 123.878906 338.878906 125 337.5 125 Z M 337.5 125 "/>
<path style=" stroke:none;fill-rule:nonzero;fill:rgb(43.137255%,47.058824%,67.843139%);fill-opacity:1;" d="M 386.808594 308.875 C 384.246094 284.804688 369.105469 224.164062 363.738281 211.054688 C 358.914062 199.269531 350.671875 194.125 342.136719 189.570312 C 332.246094 185.15625 321.46875 181.574219 310.183594 178.949219 C 307.449219 178.375 305.128906 178.09375 303.089844 178.09375 C 297.046875 178.09375 295.328125 180.628906 294.566406 182.535156 L 289.550781 195.035156 L 286.828125 194.414062 C 277.933594 192.386719 268.964844 191.351562 260.148438 191.351562 C 251.335938 191.351562 242.429688 192.378906 233.683594 194.410156 L 230.964844 195.046875 L 225.945312 182.535156 C 225.179688 180.628906 223.464844 178.09375 217.421875 178.09375 C 215.386719 178.09375 213.058594 178.375 210.390625 178.929688 C 199.039062 181.574219 188.261719 185.15625 178.574219 189.476562 C 169.835938 194.121094 161.589844 199.273438 156.765625 211.054688 C 151.398438 224.160156 136.261719 284.804688 133.695312 308.875 C 131.40625 330.34375 135.230469 333.996094 138.851562 337.464844 C 147.125 344.945312 166.453125 357.730469 179.144531 361.539062 L 182.101562 362.453125 C 186.566406 363.855469 190.789062 365.175781 194.410156 365.175781 C 197.871094 365.175781 200.324219 363.945312 202.371094 361.179688 C 208.269531 353.226562 211.15625 343.71875 211.183594 343.621094 L 211.984375 340.945312 L 214.753906 341.324219 C 230.171875 343.425781 245.644531 344.488281 260.738281 344.488281 C 275.824219 344.488281 290.964844 343.421875 305.730469 341.324219 L 308.515625 340.933594 L 309.316406 343.625 C 309.34375 343.726562 312.230469 353.226562 318.128906 361.183594 C 320.175781 363.945312 322.636719 365.175781 326.089844 365.179688 C 329.714844 365.179688 333.933594 363.859375 338.390625 362.449219 L 341.355469 361.535156 C 354.046875 357.726562 373.375 344.949219 381.578125 337.53125 C 385.273438 333.996094 389.09375 330.339844 386.808594 308.875 Z M 216.351562 308.46875 C 216.339844 308.46875 216.328125 308.46875 216.324219 308.46875 C 203.96875 308.460938 193.953125 296.351562 193.964844 281.421875 C 193.976562 266.488281 203.996094 254.390625 216.355469 254.398438 C 216.363281 254.398438 216.375 254.398438 216.378906 254.398438 C 228.734375 254.410156 238.75 266.519531 238.738281 281.449219 C 238.730469 296.378906 228.710938 308.480469 216.351562 308.46875 Z M 304.535156 309.109375 C 304.523438 309.109375 304.515625 309.109375 304.511719 309.109375 C 292.15625 309.101562 282.140625 296.539062 282.148438 281.050781 C 282.160156 265.558594 292.179688 253.015625 304.539062 253.023438 C 304.550781 253.023438 304.558594 253.023438 304.566406 253.023438 C 316.921875 253.035156 326.933594 265.59375 326.925781 281.085938 C 326.921875 296.574219 316.894531 309.121094 304.535156 309.109375 Z M 304.535156 309.109375 "/>
<path style=" stroke:none;fill-rule:nonzero;fill:rgb(27.843139%,16.862746%,16.078432%);fill-opacity:1;" d="M 326.09375 368.675781 C 321.539062 368.671875 318.019531 366.898438 315.324219 363.261719 C 309.648438 355.613281 306.625 346.671875 306.035156 344.816406 C 276.28125 349.023438 245.546875 349.023438 214.480469 344.816406 C 214.023438 346.253906 210.988281 355.441406 205.191406 363.261719 C 202.496094 366.898438 198.96875 368.675781 194.414062 368.675781 C 190.253906 368.675781 185.785156 367.273438 181.058594 365.796875 L 178.113281 364.886719 C 164.46875 360.785156 144.851562 347.601562 136.511719 340.058594 C 131.515625 335.273438 127.929688 329.964844 130.21875 308.503906 C 132.808594 284.21875 148.105469 222.980469 153.535156 209.730469 C 158.800781 196.871094 167.980469 191.144531 176.933594 186.386719 C 187.113281 181.835938 198.035156 178.21875 209.601562 175.523438 C 212.625 174.894531 215.160156 174.59375 217.425781 174.59375 C 223.464844 174.59375 227.425781 176.828125 229.195312 181.234375 L 233.09375 190.960938 C 250.960938 186.839844 269.210938 186.828125 287.414062 190.964844 L 291.316406 181.234375 C 293.75 175.164062 300.03125 173.238281 310.898438 175.523438 C 322.5 178.226562 333.464844 181.863281 343.554688 186.371094 C 352.636719 191.203125 361.726562 196.894531 366.976562 209.726562 C 372.40625 222.980469 387.703125 284.226562 390.289062 308.5 C 392.578125 330.015625 389.128906 335.148438 384 340.050781 C 375.429688 347.800781 355.511719 360.933594 342.363281 364.875 L 339.429688 365.785156 C 334.953125 367.203125 330.308594 368.675781 326.09375 368.675781 Z M 311.003906 337.046875 L 312.675781 342.621094 C 312.710938 342.734375 315.480469 351.730469 320.945312 359.09375 C 322.335938 360.976562 323.734375 361.675781 326.09375 361.675781 C 329.226562 361.675781 333.351562 360.371094 337.339844 359.105469 L 340.324219 358.179688 C 352.378906 354.566406 371.421875 341.996094 379.234375 334.925781 C 382.25 332.046875 385.429688 329 383.324219 309.246094 C 380.785156 285.390625 365.804688 225.351562 360.5 212.378906 C 356.121094 201.683594 348.84375 197.121094 340.480469 192.660156 C 331.015625 188.445312 320.480469 184.945312 309.390625 182.359375 C 306.964844 181.851562 304.875 181.601562 303.085938 181.601562 C 298.710938 181.601562 298.125 183.058594 297.804688 183.851562 L 291.675781 199.125 L 286.046875 197.839844 C 268.730469 193.878906 251.433594 193.890625 234.46875 197.828125 L 228.828125 199.148438 L 222.691406 183.851562 C 222.375 183.066406 221.785156 181.605469 217.410156 181.605469 C 215.628906 181.605469 213.558594 181.855469 211.089844 182.363281 C 200.03125 184.941406 189.539062 188.414062 179.984375 192.675781 C 171.746094 197.070312 164.378906 201.664062 159.988281 212.386719 C 154.679688 225.34375 139.699219 285.390625 137.164062 309.25 C 135.054688 329 138.210938 332.015625 141.253906 334.933594 C 149.03125 341.960938 168.101562 354.570312 180.136719 358.191406 L 183.121094 359.109375 C 187.335938 360.429688 191.308594 361.675781 194.394531 361.675781 C 196.761719 361.675781 198.15625 360.976562 199.546875 359.101562 C 205.015625 351.726562 207.78125 342.734375 207.808594 342.644531 L 209.476562 337.070312 L 215.210938 337.855469 C 245.753906 342.011719 275.96875 342.015625 305.21875 337.855469 Z M 304.550781 312.609375 C 304.546875 312.609375 304.539062 312.609375 304.53125 312.609375 L 304.511719 312.609375 C 290.238281 312.601562 278.640625 298.441406 278.644531 281.050781 C 278.648438 272.765625 281.25 264.949219 285.976562 259.039062 C 290.875 252.898438 297.464844 249.519531 304.519531 249.519531 C 304.523438 249.519531 304.53125 249.519531 304.539062 249.519531 C 318.835938 249.53125 330.433594 263.691406 330.425781 281.078125 C 330.421875 289.359375 327.820312 297.175781 323.09375 303.085938 C 318.195312 309.230469 311.605469 312.609375 304.550781 312.609375 Z M 304.550781 256.523438 C 299.636719 256.523438 294.996094 258.96875 291.445312 263.410156 C 287.710938 268.085938 285.65625 274.351562 285.648438 281.054688 C 285.644531 294.589844 294.105469 305.605469 304.515625 305.609375 L 304.539062 305.609375 C 304.539062 305.609375 304.546875 305.609375 304.550781 305.609375 C 309.441406 305.609375 314.078125 303.164062 317.625 298.726562 C 321.359375 294.046875 323.421875 287.785156 323.421875 281.085938 C 323.429688 267.550781 314.96875 256.535156 304.558594 256.523438 C 304.558594 256.523438 304.554688 256.523438 304.550781 256.523438 Z M 216.363281 311.96875 C 216.359375 311.96875 216.355469 311.96875 216.34375 311.96875 L 216.324219 311.96875 C 202.054688 311.960938 190.449219 298.25 190.460938 281.414062 C 190.464844 273.386719 193.078125 265.800781 197.828125 260.070312 C 202.730469 254.15625 209.304688 250.894531 216.335938 250.894531 C 216.339844 250.894531 216.34375 250.894531 216.355469 250.894531 C 230.644531 250.90625 242.25 264.613281 242.238281 281.449219 C 242.234375 289.480469 239.621094 297.066406 234.871094 302.796875 C 229.96875 308.710938 223.398438 311.96875 216.363281 311.96875 Z M 216.359375 257.898438 C 211.425781 257.898438 206.765625 260.253906 203.21875 264.539062 C 199.511719 269.019531 197.464844 275.015625 197.464844 281.421875 C 197.453125 294.398438 205.914062 304.964844 216.328125 304.96875 L 216.355469 304.96875 C 216.355469 304.96875 216.359375 304.96875 216.363281 304.96875 C 221.273438 304.96875 225.933594 302.613281 229.480469 298.328125 C 233.191406 293.851562 235.234375 287.855469 235.234375 281.449219 C 235.246094 268.46875 226.785156 257.90625 216.371094 257.898438 C 216.371094 257.898438 216.363281 257.898438 216.359375 257.898438 Z M 216.359375 257.898438 "/>
<path style=" stroke:none;fill-rule:nonzero;fill:rgb(43.137255%,47.058824%,67.843139%);fill-opacity:1;" d="M 195.035156 337.84375 C 236.421875 346.625 277.175781 347.40625 325.460938 337.691406 "/>
<path style=" stroke:none;fill-rule:nonzero;fill:rgb(27.843139%,16.862746%,16.078432%);fill-opacity:1;" d="M 258.820312 348.164062 C 237.226562 348.164062 215.976562 345.871094 194.316406 341.269531 C 192.425781 340.871094 191.21875 339.011719 191.621094 337.121094 C 192.019531 335.226562 193.910156 334.011719 195.769531 334.425781 C 238.933594 343.578125 278.714844 343.53125 324.773438 334.261719 C 326.621094 333.859375 328.511719 335.101562 328.894531 337 C 329.273438 338.894531 328.050781 340.738281 326.148438 341.121094 C 302.824219 345.816406 280.644531 348.164062 258.820312 348.164062 Z M 258.820312 348.164062 "/>
<path style=" stroke:none;fill-rule:nonzero;fill:rgb(99.215686%,98.823529%,93.725491%);fill-opacity:1;" d="M 132.5 367.5 C 132.5 367.5 140.335938 367.5 150 367.5 C 159.664062 367.5 167.5 359.664062 167.5 350 C 167.5 341.09375 160.824219 333.828125 152.226562 332.726562 C 152.363281 331.828125 152.5 330.933594 152.5 330 C 152.5 320.335938 144.664062 312.5 135 312.5 C 129.839844 312.5 125.25 314.773438 122.050781 318.324219 C 120.128906 309.285156 112.113281 302.5 102.5 302.5 C 91.453125 302.5 82.5 311.453125 82.5 322.5 C 82.5 323.453125 82.648438 324.371094 82.78125 325.289062 C 80.640625 323.570312 77.960938 322.5 75 322.5 C 68.859375 322.5 63.773438 326.933594 62.726562 332.773438 C 61.828125 332.636719 60.933594 332.5 60 332.5 C 50.335938 332.5 42.5 340.335938 42.5 350 C 42.5 359.664062 50.335938 367.5 60 367.5 C 69.664062 367.5 97.5 367.5 97.5 367.5 L 97.5 370 L 132.5 370 Z M 132.5 367.5 "/>
<path style=" stroke:none;fill-rule:nonzero;fill:rgb(27.843139%,16.862746%,16.078432%);fill-opacity:1;" d="M 141.25 345 C 140.558594 345 140 344.441406 140 343.75 C 140 337.636719 144.976562 332.660156 151.089844 332.660156 C 151.261719 332.703125 154.773438 332.65625 157.308594 333.339844 C 157.976562 333.519531 158.371094 334.203125 158.191406 334.871094 C 158.011719 335.539062 157.324219 335.933594 156.660156 335.75 C 154.441406 335.148438 151.160156 335.148438 151.09375 335.160156 C 146.355469 335.160156 142.5 339.015625 142.5 343.75 C 142.5 344.441406 141.941406 345 141.25 345 Z M 107.5 365 C 106.121094 365 105 366.121094 105 367.5 C 105 368.878906 106.121094 370 107.5 370 C 108.878906 370 110 368.878906 110 367.5 C 110 366.121094 108.878906 365 107.5 365 Z M 107.5 365 "/>
<path style=" stroke:none;fill-rule:nonzero;fill:rgb(27.843139%,16.862746%,16.078432%);fill-opacity:1;" d="M 150 370 L 132.5 370 C 131.121094 370 130 368.878906 130 367.5 C 130 366.121094 131.121094 365 132.5 365 L 150 365 C 158.269531 365 165 358.269531 165 350 C 165 342.519531 159.375 336.160156 151.910156 335.203125 C 151.238281 335.113281 150.636719 334.765625 150.230469 334.226562 C 149.824219 333.683594 149.65625 333.003906 149.761719 332.339844 C 149.875 331.570312 150 330.800781 150 330 C 150 321.730469 143.269531 315 135 315 C 130.75 315 126.808594 316.773438 123.90625 320 C 123.28125 320.695312 122.300781 320.988281 121.40625 320.738281 C 120.496094 320.496094 119.800781 319.765625 119.605469 318.84375 C 117.898438 310.824219 110.703125 305 102.5 305 C 92.851562 305 85 312.851562 85 322.5 C 85 323.214844 85.105469 323.898438 85.203125 324.589844 C 85.351562 325.605469 84.890625 326.78125 83.996094 327.289062 C 83.101562 327.800781 82.015625 327.878906 81.214844 327.238281 C 79.390625 325.773438 77.246094 325 75 325 C 70.171875 325 66.039062 328.453125 65.183594 333.21875 C 64.945312 334.554688 63.703125 335.449219 62.339844 335.246094 C 61.570312 335.125 60.800781 335 60 335 C 51.730469 335 45 341.730469 45 350 C 45 358.269531 51.730469 365 60 365 L 97.5 365 C 98.878906 365 100 366.121094 100 367.5 C 100 368.878906 98.878906 370 97.5 370 L 60 370 C 48.96875 370 40 361.03125 40 350 C 40 338.96875 48.96875 330 60 330 C 60.296875 330 60.578125 330.011719 60.871094 330.03125 C 62.941406 324.101562 68.554688 320 75 320 C 76.746094 320 78.445312 320.304688 80.054688 320.898438 C 80.878906 309.234375 90.628906 300 102.5 300 C 111.65625 300 119.828125 305.636719 123.265625 313.871094 C 126.664062 311.378906 130.773438 310 135 310 C 146.03125 310 155 318.96875 155 330 C 155 330.238281 154.996094 330.476562 154.980469 330.710938 C 163.695312 332.949219 170 340.84375 170 350 C 170 361.03125 161.03125 370 150 370 Z M 150 370 "/>
<path style=" stroke:none;fill-rule:nonzero;fill:rgb(27.843139%,16.862746%,16.078432%);fill-opacity:1;" d="M 122.5 365 C 121.703125 365 118.296875 365 117.5 365 C 116.121094 365 115 366.121094 115 367.5 C 115 368.878906 116.121094 370 117.5 370 C 118.296875 370 121.703125 370 122.5 370 C 123.878906 370 125 368.878906 125 367.5 C 125 366.121094 123.878906 365 122.5 365 Z M 122.5 365 "/>
<path style=" stroke:none;fill-rule:nonzero;fill:rgb(27.843139%,16.862746%,16.078432%);fill-opacity:1;" d="M 215.96875 256.410156 C 226.511719 256.410156 235.078125 267.476562 235.078125 281.070312 C 235.078125 294.664062 226.511719 305.730469 215.96875 305.730469 C 205.429688 305.730469 196.859375 294.664062 196.859375 281.070312 C 196.859375 267.46875 205.429688 256.410156 215.96875 256.410156 M 215.96875 249.640625 C 201.808594 249.640625 190.328125 263.710938 190.328125 281.070312 C 190.328125 298.429688 201.804688 312.5 215.96875 312.5 C 230.136719 312.5 241.609375 298.429688 241.609375 281.070312 C 241.609375 263.710938 230.128906 249.640625 215.96875 249.640625 Z M 215.96875 249.640625 "/>
<path style=" stroke:none;fill-rule:nonzero;fill:rgb(27.843139%,16.862746%,16.078432%);fill-opacity:1;" d="M 304.535156 256.410156 C 315.074219 256.410156 323.644531 267.476562 323.644531 281.070312 C 323.644531 294.664062 315.074219 305.730469 304.535156 305.730469 C 293.996094 305.730469 285.425781 294.664062 285.425781 281.070312 C 285.425781 267.46875 294 256.410156 304.535156 256.410156 M 304.535156 249.640625 C 290.375 249.640625 278.894531 263.710938 278.894531 281.070312 C 278.894531 298.429688 290.371094 312.5 304.535156 312.5 C 318.699219 312.5 330.175781 298.429688 330.175781 281.070312 C 330.175781 263.710938 318.699219 249.640625 304.535156 249.640625 Z M 304.535156 249.640625 "/>
<path style=" stroke:none;fill-rule:nonzero;fill:rgb(27.843139%,16.862746%,16.078432%);fill-opacity:1;" d="M 295.710938 213.011719 C 295.488281 213.011719 295.261719 212.980469 295.035156 212.914062 C 285.03125 210.121094 269.488281 208.578125 255.503906 208.988281 C 254.136719 208.960938 252.96875 207.945312 252.929688 206.566406 C 252.890625 205.183594 253.980469 204.035156 255.355469 203.988281 C 269.855469 203.574219 285.933594 205.183594 296.378906 208.101562 C 297.710938 208.46875 298.484375 209.851562 298.113281 211.179688 C 297.808594 212.289062 296.800781 213.011719 295.710938 213.011719 Z M 295.710938 213.011719 "/>
<path style=" stroke:none;fill-rule:nonzero;fill:rgb(27.843139%,16.862746%,16.078432%);fill-opacity:1;" d="M 223.84375 213.234375 C 222.734375 213.234375 221.71875 212.496094 221.429688 211.371094 C 221.078125 210.035156 221.875 208.664062 223.210938 208.316406 C 228.839844 206.828125 234.464844 205.660156 239.925781 204.839844 C 241.28125 204.671875 242.558594 205.574219 242.765625 206.941406 C 242.96875 208.304688 242.035156 209.574219 240.664062 209.785156 C 235.378906 210.578125 229.933594 211.710938 224.480469 213.148438 C 224.269531 213.210938 224.054688 213.234375 223.84375 213.234375 Z M 223.84375 213.234375 "/>
</g>
</svg>
