<?xml version="1.0" encoding="UTF-8"?>
<svg xmlns="http://www.w3.org/2000/svg" xmlns:xlink="http://www.w3.org/1999/xlink" viewBox="0 0 100 100" width="100px" height="100px">
<g id="surface1396246">
<path style=" stroke:none;fill-rule:nonzero;fill:rgb(59.215689%,78.039217%,100%);fill-opacity:1;" d="M 87.214844 56.710938 C 88.351562 54.554688 89 52.105469 89 49.5 C 89 42.878906 84.839844 37.242188 79 35.023438 C 79 35.015625 79 35.007812 79 35 C 79 23.402344 69.597656 14 58 14 C 48.214844 14 40.019531 20.699219 37.6875 29.757812 C 36.210938 29.273438 34.636719 29 33 29 C 25.308594 29 18.976562 34.792969 18.109375 42.253906 C 12.90625 43.351562 9 47.96875 9 53.5 C 9 59.851562 14.148438 65 20.5 65 C 20.675781 65 20.851562 64.988281 21.027344 64.976562 C 21.023438 65.152344 21 65.324219 21 65.5 C 21 76.820312 30.179688 86 41.5 86 C 47.9375 86 53.675781 83.027344 57.433594 78.386719 C 59.613281 80.609375 62.640625 82 66 82 C 70.648438 82 74.675781 79.351562 76.664062 75.480469 C 77.71875 75.816406 78.835938 76 80 76 C 86.074219 76 91 71.074219 91 65 C 91 61.6875 89.53125 58.726562 87.214844 56.710938 Z M 87.214844 56.710938 "/>
<path style=" stroke:none;fill-rule:nonzero;fill:rgb(99.215686%,98.823529%,93.725491%);fill-opacity:1;" d="M 83.875 45.5 C 83.875 45.5 87.515625 45.5 90 45.5 C 92.484375 45.5 94.5 43.484375 94.5 41 C 94.5 38.667969 92.71875 36.769531 90.445312 36.546875 C 90.46875 36.363281 90.5 36.1875 90.5 36 C 90.5 33.515625 88.484375 31.5 86 31.5 C 84.5625 31.5 83.296875 32.1875 82.472656 33.234375 C 82.332031 30.601562 80.171875 28.5 77.5 28.5 C 74.738281 28.5 72.5 30.738281 72.5 33.5 C 72.5 33.945312 72.578125 34.371094 72.6875 34.78125 C 72.046875 34.003906 71.085938 33.5 70 33.5 C 68.21875 33.5 66.765625 34.835938 66.546875 36.554688 C 66.363281 36.53125 66.1875 36.5 66 36.5 C 63.515625 36.5 61.5 38.515625 61.5 41 C 61.5 43.484375 63.515625 45.5 66 45.5 C 68.484375 45.5 75.5 45.5 75.5 45.5 L 80.875 45.5 L 80.875 46 L 83.875 46 Z M 83.875 45.5 "/>
<path style=" stroke:none;fill-rule:nonzero;fill:rgb(27.843139%,16.862746%,16.078432%);fill-opacity:1;" d="M 77.5 28 C 74.46875 28 72 30.46875 72 33.5 C 72 33.515625 72 33.53125 72 33.546875 C 71.398438 33.191406 70.710938 33 70 33 C 68.167969 33 66.589844 34.261719 66.140625 36.003906 C 66.09375 36.003906 66.046875 36 66 36 C 63.242188 36 61 38.242188 61 41 C 61 43.757812 63.242188 46 66 46 L 80.875 46 C 81.152344 46 81.375 45.777344 81.375 45.5 C 81.375 45.222656 81.152344 45 80.875 45 L 66 45 C 63.792969 45 62 43.207031 62 41 C 62 38.792969 63.792969 37 66 37 C 66.117188 37 66.230469 37.015625 66.34375 37.03125 L 66.484375 37.050781 C 66.503906 37.054688 66.523438 37.054688 66.546875 37.054688 C 66.792969 37.054688 67.007812 36.871094 67.039062 36.617188 C 67.230469 35.125 68.503906 34 70 34 C 70.886719 34 71.722656 34.402344 72.300781 35.101562 C 72.398438 35.21875 72.542969 35.28125 72.6875 35.28125 C 72.765625 35.28125 72.84375 35.265625 72.914062 35.226562 C 73.125 35.117188 73.230469 34.878906 73.167969 34.652344 C 73.054688 34.21875 73 33.851562 73 33.5 C 73 31.019531 75.019531 29 77.5 29 C 79.882812 29 81.847656 30.871094 81.972656 33.261719 C 81.984375 33.472656 82.125 33.648438 82.324219 33.714844 C 82.371094 33.730469 82.425781 33.738281 82.476562 33.738281 C 82.625 33.738281 82.769531 33.667969 82.867188 33.546875 C 83.636719 32.5625 84.777344 32 86 32 C 88.207031 32 90 33.792969 90 36 C 90 36.117188 89.984375 36.230469 89.96875 36.34375 L 89.949219 36.484375 C 89.933594 36.617188 89.972656 36.753906 90.054688 36.855469 C 90.140625 36.960938 90.261719 37.027344 90.394531 37.042969 C 92.449219 37.246094 94 38.949219 94 41 C 94 43.207031 92.207031 45 90 45 L 83.875 45 C 83.597656 45 83.375 45.222656 83.375 45.5 C 83.375 45.777344 83.597656 46 83.875 46 L 90 46 C 92.757812 46 95 43.757812 95 41 C 95 38.601562 93.3125 36.585938 90.996094 36.121094 C 91 36.082031 91 36.039062 91 36 C 91 33.242188 88.757812 31 86 31 C 84.824219 31 83.707031 31.414062 82.816406 32.164062 C 82.21875 29.761719 80.054688 28 77.5 28 Z M 77.5 28 "/>
<path style=" stroke:none;fill-rule:nonzero;fill:rgb(27.843139%,16.862746%,16.078432%);fill-opacity:1;" d="M 76 35 C 74.597656 35 73.390625 36 73.085938 37.339844 C 72.71875 37.117188 72.300781 37 71.875 37 C 70.671875 37 69.675781 37.898438 69.523438 39.066406 C 69.320312 39.023438 69.125 39 68.9375 39 C 67.410156 39 66.128906 40.199219 66.019531 41.730469 C 66.011719 41.871094 66.113281 41.988281 66.25 42 C 66.257812 42 66.261719 42 66.269531 42 C 66.398438 42 66.507812 41.898438 66.519531 41.769531 C 66.605469 40.496094 67.667969 39.5 68.9375 39.5 C 69.164062 39.5 69.40625 39.542969 69.675781 39.628906 C 69.695312 39.632812 69.71875 39.636719 69.742188 39.636719 C 69.796875 39.636719 69.851562 39.617188 69.898438 39.582031 C 69.960938 39.535156 70 39.453125 70 39.375 C 70 38.339844 70.839844 37.5 71.875 37.5 C 72.320312 37.5 72.761719 37.667969 73.105469 37.972656 C 73.152344 38.015625 73.210938 38.035156 73.269531 38.035156 C 73.304688 38.035156 73.335938 38.03125 73.363281 38.015625 C 73.453125 37.980469 73.511719 37.898438 73.519531 37.804688 C 73.621094 36.511719 74.710938 35.5 76 35.5 C 76.207031 35.5 76.425781 35.535156 76.683594 35.605469 C 76.703125 35.613281 76.730469 35.617188 76.753906 35.617188 C 76.859375 35.617188 76.960938 35.542969 76.992188 35.433594 C 77.027344 35.300781 76.953125 35.164062 76.820312 35.125 C 76.515625 35.039062 76.257812 35 76 35 Z M 89.882812 36.5 C 88.558594 36.5 87.375 37.398438 87.007812 38.683594 C 86.972656 38.816406 87.046875 38.953125 87.179688 38.992188 C 87.203125 38.996094 87.226562 39 87.25 39 C 87.359375 39 87.460938 38.929688 87.488281 38.816406 C 87.796875 37.746094 88.777344 37 89.882812 37 C 90 37 90.113281 37.015625 90.226562 37.027344 C 90.238281 37.03125 90.246094 37.03125 90.261719 37.03125 C 90.382812 37.03125 90.488281 36.941406 90.507812 36.816406 C 90.523438 36.679688 90.429688 36.550781 90.292969 36.535156 C 90.15625 36.515625 90.023438 36.5 89.882812 36.5 Z M 89.882812 36.5 "/>
<path style=" stroke:none;fill-rule:nonzero;fill:rgb(100%,100%,100%);fill-opacity:1;" d="M 15.40625 48 L 5.5 48 C 5.222656 48 5 47.777344 5 47.5 C 5 47.222656 5.222656 47 5.5 47 L 15.40625 47 C 15.679688 47 15.90625 47.222656 15.90625 47.5 C 15.90625 47.777344 15.683594 48 15.40625 48 Z M 18.5 48 L 17.5 48 C 17.222656 48 17 47.777344 17 47.5 C 17 47.222656 17.222656 47 17.5 47 L 18.5 47 C 18.777344 47 19 47.222656 19 47.5 C 19 47.777344 18.777344 48 18.5 48 Z M 23.492188 50 L 14.5 50 C 14.222656 50 14 49.777344 14 49.5 C 14 49.222656 14.222656 49 14.5 49 L 23.492188 49 C 23.765625 49 23.992188 49.222656 23.992188 49.5 C 23.992188 49.777344 23.765625 50 23.492188 50 Z M 12.5 50 L 11.5 50 C 11.222656 50 11 49.777344 11 49.5 C 11 49.222656 11.222656 49 11.5 49 L 12.5 49 C 12.777344 49 13 49.222656 13 49.5 C 13 49.777344 12.777344 50 12.5 50 Z M 9.5 50 L 7.5 50 C 7.222656 50 7 49.777344 7 49.5 C 7 49.222656 7.222656 49 7.5 49 L 9.5 49 C 9.777344 49 10 49.222656 10 49.5 C 10 49.777344 9.777344 50 9.5 50 Z M 15.5 52 L 13.5 52 C 13.222656 52 13 51.777344 13 51.5 C 13 51.222656 13.222656 51 13.5 51 L 15.5 51 C 15.777344 51 16 51.222656 16 51.5 C 16 51.777344 15.777344 52 15.5 52 Z M 18.5 43 C 18.324219 43 17.675781 43 17.5 43 C 17.222656 43 17 43.222656 17 43.5 C 17 43.777344 17.222656 44 17.5 44 C 17.675781 44 18.324219 44 18.5 44 C 18.777344 44 19 43.777344 19 43.5 C 19 43.222656 18.777344 43 18.5 43 Z M 18.5 45 C 18.324219 45 13.675781 45 13.5 45 C 13.222656 45 13 45.222656 13 45.5 C 13 45.777344 13.222656 46 13.5 46 C 13.675781 46 18.324219 46 18.5 46 C 18.777344 46 19 45.777344 19 45.5 C 19 45.222656 18.777344 45 18.5 45 Z M 23.5 47 C 23.324219 47 20.675781 47 20.5 47 C 20.222656 47 20 47.222656 20 47.5 C 20 47.777344 20.222656 48 20.5 48 C 20.675781 48 23.324219 48 23.5 48 C 23.777344 48 24 47.777344 24 47.5 C 24 47.222656 23.777344 47 23.5 47 Z M 23.5 47 "/>
<path style=" stroke:none;fill-rule:nonzero;fill:rgb(100%,100%,100%);fill-opacity:1;" d="M 67.5 21 L 57.5 21 C 57.222656 21 57 20.777344 57 20.5 C 57 20.222656 57.222656 20 57.5 20 L 67.5 20 C 67.777344 20 68 20.222656 68 20.5 C 68 20.777344 67.777344 21 67.5 21 Z M 71.5 21 L 69.5 21 C 69.222656 21 69 20.777344 69 20.5 C 69 20.222656 69.222656 20 69.5 20 L 71.5 20 C 71.777344 20 72 20.222656 72 20.5 C 72 20.777344 71.777344 21 71.5 21 Z M 76.5 23 L 66.5 23 C 66.222656 23 66 22.777344 66 22.5 C 66 22.222656 66.222656 22 66.5 22 L 76.5 22 C 76.777344 22 77 22.222656 77 22.5 C 77 22.777344 76.777344 23 76.5 23 Z M 64.5 23 L 63.5 23 C 63.222656 23 63 22.777344 63 22.5 C 63 22.222656 63.222656 22 63.5 22 L 64.5 22 C 64.777344 22 65 22.222656 65 22.5 C 65 22.777344 64.777344 23 64.5 23 Z M 61.375 23 L 59.5 23 C 59.222656 23 59 22.777344 59 22.5 C 59 22.222656 59.222656 22 59.5 22 L 61.375 22 C 61.652344 22 61.875 22.222656 61.875 22.5 C 61.875 22.777344 61.652344 23 61.375 23 Z M 70.5 19 L 65.5 19 C 65.222656 19 65 18.777344 65 18.5 C 65 18.222656 65.222656 18 65.5 18 L 70.5 18 C 70.777344 18 71 18.222656 71 18.5 C 71 18.777344 70.777344 19 70.5 19 Z M 67.5 25 L 65.5 25 C 65.222656 25 65 24.777344 65 24.5 C 65 24.222656 65.222656 24 65.5 24 L 67.5 24 C 67.777344 24 68 24.222656 68 24.5 C 68 24.777344 67.777344 25 67.5 25 Z M 67.5 25 "/>
<path style=" stroke:none;fill-rule:nonzero;fill:rgb(43.137255%,47.058824%,67.843139%);fill-opacity:1;" d="M 77.363281 61.773438 C 76.847656 56.960938 73.820312 44.832031 72.746094 42.210938 C 71.78125 39.855469 70.132812 38.824219 68.425781 37.914062 C 66.449219 37.03125 64.292969 36.316406 62.035156 35.789062 C 61.488281 35.675781 61.027344 35.617188 60.617188 35.617188 C 59.410156 35.617188 59.066406 36.125 58.914062 36.507812 L 57.910156 39.007812 L 57.367188 38.882812 C 55.585938 38.476562 53.792969 38.269531 52.03125 38.269531 C 50.265625 38.269531 48.484375 38.476562 46.738281 38.882812 L 46.191406 39.007812 L 45.1875 36.507812 C 45.035156 36.125 44.691406 35.617188 43.484375 35.617188 C 43.078125 35.617188 42.613281 35.675781 42.078125 35.785156 C 39.808594 36.316406 37.652344 37.03125 35.714844 37.894531 C 33.96875 38.824219 32.316406 39.855469 31.351562 42.210938 C 30.28125 44.832031 27.253906 56.960938 26.738281 61.773438 C 26.28125 66.070312 27.046875 66.800781 27.769531 67.492188 C 29.425781 68.988281 33.289062 71.546875 35.828125 72.308594 L 36.421875 72.492188 C 37.3125 72.769531 38.15625 73.035156 38.882812 73.035156 C 39.574219 73.035156 40.066406 72.789062 40.472656 72.234375 C 41.652344 70.644531 42.230469 68.742188 42.238281 68.722656 L 42.398438 68.1875 L 42.949219 68.265625 C 46.035156 68.683594 49.128906 68.898438 52.148438 68.898438 C 55.164062 68.898438 58.191406 68.683594 61.144531 68.265625 L 61.703125 68.1875 L 61.863281 68.726562 C 61.867188 68.746094 62.445312 70.644531 63.625 72.238281 C 64.035156 72.789062 64.527344 73.035156 65.21875 73.035156 C 65.941406 73.035156 66.785156 72.773438 67.679688 72.488281 L 68.269531 72.308594 C 70.808594 71.546875 74.675781 68.988281 76.316406 67.507812 C 77.054688 66.800781 77.820312 66.066406 77.363281 61.773438 Z M 43.269531 61.695312 C 43.269531 61.695312 43.265625 61.695312 43.265625 61.695312 C 40.792969 61.691406 38.789062 59.269531 38.792969 56.285156 C 38.796875 53.296875 40.800781 50.878906 43.269531 50.878906 C 43.273438 50.878906 43.273438 50.878906 43.277344 50.878906 C 45.746094 50.882812 47.75 53.304688 47.746094 56.289062 C 47.746094 59.277344 45.742188 61.695312 43.269531 61.695312 Z M 60.90625 61.820312 C 60.90625 61.820312 60.902344 61.820312 60.902344 61.820312 C 58.429688 61.820312 56.429688 59.308594 56.429688 56.210938 C 56.433594 53.113281 58.4375 50.601562 60.90625 50.605469 C 60.910156 50.605469 60.910156 50.605469 60.914062 50.605469 C 63.382812 50.605469 65.386719 53.117188 65.386719 56.21875 C 65.382812 59.316406 63.378906 61.824219 60.90625 61.820312 Z M 60.90625 61.820312 "/>
<path style=" stroke:none;fill-rule:nonzero;fill:rgb(27.843139%,16.862746%,16.078432%);fill-opacity:1;" d="M 65.21875 73.734375 C 64.308594 73.734375 63.605469 73.378906 63.066406 72.652344 C 61.929688 71.121094 61.324219 69.335938 61.207031 68.964844 C 55.257812 69.804688 49.109375 69.804688 42.894531 68.964844 C 42.804688 69.25 42.199219 71.089844 41.039062 72.652344 C 40.5 73.378906 39.792969 73.734375 38.882812 73.734375 C 38.050781 73.734375 37.15625 73.453125 36.210938 73.160156 L 35.621094 72.976562 C 32.894531 72.15625 28.96875 69.519531 27.300781 68.011719 C 26.304688 67.054688 25.585938 65.992188 26.042969 61.699219 C 26.5625 56.84375 29.621094 44.597656 30.707031 41.945312 C 31.761719 39.375 33.597656 38.230469 35.386719 37.277344 C 37.421875 36.367188 39.605469 35.644531 41.921875 35.105469 C 42.523438 34.980469 43.03125 34.917969 43.484375 34.917969 C 44.691406 34.917969 45.484375 35.367188 45.839844 36.246094 L 46.617188 38.191406 C 50.191406 37.367188 53.84375 37.367188 57.484375 38.191406 L 58.261719 36.246094 C 58.75 35.03125 60.007812 34.648438 62.179688 35.105469 C 64.5 35.644531 66.691406 36.371094 68.710938 37.273438 C 70.527344 38.242188 72.34375 39.378906 73.394531 41.945312 C 74.480469 44.597656 77.539062 56.84375 78.058594 61.699219 C 78.515625 66.003906 77.824219 67.03125 76.800781 68.011719 C 75.085938 69.558594 71.101562 72.1875 68.472656 72.976562 L 67.886719 73.15625 C 66.992188 73.441406 66.0625 73.734375 65.21875 73.734375 Z M 62.199219 67.410156 L 62.535156 68.523438 C 62.542969 68.546875 63.097656 70.347656 64.1875 71.820312 C 64.46875 72.195312 64.746094 72.335938 65.21875 72.335938 C 65.84375 72.335938 66.671875 72.074219 67.46875 71.820312 L 68.066406 71.636719 C 70.476562 70.914062 74.285156 68.398438 75.847656 66.984375 C 76.449219 66.410156 77.085938 65.800781 76.664062 61.847656 C 76.15625 57.078125 73.160156 45.070312 72.101562 42.476562 C 71.222656 40.335938 69.769531 39.425781 68.097656 38.53125 C 66.203125 37.6875 64.097656 36.988281 61.878906 36.472656 C 61.394531 36.371094 60.976562 36.320312 60.617188 36.320312 C 59.742188 36.320312 59.625 36.613281 59.5625 36.769531 L 58.335938 39.824219 L 57.210938 39.566406 C 53.746094 38.777344 50.285156 38.777344 46.894531 39.566406 L 45.765625 39.828125 L 44.539062 36.769531 C 44.476562 36.613281 44.355469 36.320312 43.480469 36.320312 C 43.125 36.320312 42.710938 36.371094 42.21875 36.472656 C 40.007812 36.988281 37.90625 37.683594 35.996094 38.535156 C 34.347656 39.414062 32.875 40.332031 31.996094 42.476562 C 30.9375 45.070312 27.941406 57.078125 27.433594 61.851562 C 27.011719 65.800781 27.640625 66.402344 28.25 66.988281 C 29.804688 68.390625 33.621094 70.914062 36.027344 71.636719 L 36.625 71.820312 C 37.46875 72.085938 38.261719 72.335938 38.878906 72.335938 C 39.351562 72.335938 39.632812 72.195312 39.910156 71.820312 C 41.003906 70.34375 41.554688 68.546875 41.5625 68.527344 L 41.894531 67.414062 L 43.042969 67.570312 C 49.152344 68.402344 55.195312 68.402344 61.042969 67.570312 Z M 60.910156 62.523438 C 60.910156 62.523438 60.90625 62.523438 60.90625 62.523438 L 60.902344 62.523438 C 58.046875 62.519531 55.726562 59.6875 55.730469 56.210938 C 55.730469 54.554688 56.25 52.988281 57.195312 51.808594 C 58.175781 50.578125 59.492188 49.902344 60.902344 49.902344 C 60.90625 49.902344 60.90625 49.902344 60.90625 49.902344 C 63.765625 49.90625 66.085938 52.738281 66.085938 56.214844 C 66.085938 57.871094 65.5625 59.433594 64.617188 60.617188 C 63.640625 61.847656 62.320312 62.523438 60.910156 62.523438 Z M 60.910156 51.304688 C 59.925781 51.304688 59 51.792969 58.289062 52.683594 C 57.542969 53.617188 57.132812 54.871094 57.128906 56.210938 C 57.128906 58.917969 58.820312 61.121094 60.902344 61.121094 L 60.90625 61.121094 C 60.90625 61.121094 60.910156 61.121094 60.910156 61.121094 C 61.886719 61.121094 62.816406 60.632812 63.523438 59.746094 C 64.273438 58.808594 64.683594 57.558594 64.683594 56.21875 C 64.6875 53.511719 62.992188 51.308594 60.910156 51.304688 Z M 43.273438 62.394531 C 43.273438 62.394531 43.269531 62.394531 43.269531 62.394531 L 43.265625 62.394531 C 40.410156 62.390625 38.089844 59.648438 38.09375 56.28125 C 38.09375 54.675781 38.617188 53.160156 39.566406 52.015625 C 40.546875 50.832031 41.859375 50.179688 43.265625 50.179688 C 43.269531 50.179688 43.269531 50.179688 43.269531 50.179688 C 46.128906 50.179688 48.449219 52.921875 48.449219 56.289062 C 48.445312 57.894531 47.925781 59.414062 46.972656 60.558594 C 45.992188 61.742188 44.679688 62.394531 43.273438 62.394531 Z M 43.273438 51.578125 C 42.285156 51.578125 41.351562 52.050781 40.644531 52.90625 C 39.902344 53.804688 39.492188 55.003906 39.492188 56.285156 C 39.492188 58.878906 41.183594 60.992188 43.265625 60.992188 L 43.269531 60.992188 C 43.269531 60.992188 43.273438 60.992188 43.273438 60.992188 C 44.253906 60.992188 45.1875 60.523438 45.894531 59.664062 C 46.636719 58.769531 47.046875 57.570312 47.046875 56.289062 C 47.050781 53.695312 45.355469 51.582031 43.273438 51.578125 Z M 43.273438 51.578125 "/>
<path style=" stroke:none;fill-rule:nonzero;fill:rgb(43.137255%,47.058824%,67.843139%);fill-opacity:1;" d="M 39.007812 67.570312 C 47.285156 69.324219 55.433594 69.480469 65.09375 67.539062 "/>
<path style=" stroke:none;fill-rule:nonzero;fill:rgb(27.843139%,16.862746%,16.078432%);fill-opacity:1;" d="M 51.765625 69.632812 C 47.445312 69.632812 43.195312 69.175781 38.863281 68.253906 C 38.484375 68.175781 38.242188 67.800781 38.324219 67.425781 C 38.402344 67.046875 38.78125 66.800781 39.152344 66.886719 C 47.785156 68.714844 55.742188 68.707031 64.953125 66.851562 C 65.324219 66.773438 65.703125 67.019531 65.777344 67.398438 C 65.855469 67.777344 65.609375 68.148438 65.230469 68.222656 C 60.566406 69.164062 56.128906 69.632812 51.765625 69.632812 Z M 51.765625 69.632812 "/>
<path style=" stroke:none;fill-rule:nonzero;fill:rgb(99.215686%,98.823529%,93.725491%);fill-opacity:1;" d="M 26.5 73.5 C 26.5 73.5 28.066406 73.5 30 73.5 C 31.933594 73.5 33.5 71.933594 33.5 70 C 33.5 68.21875 32.164062 66.765625 30.445312 66.546875 C 30.472656 66.367188 30.5 66.1875 30.5 66 C 30.5 64.066406 28.933594 62.5 27 62.5 C 25.96875 62.5 25.050781 62.953125 24.410156 63.664062 C 24.027344 61.855469 22.421875 60.5 20.5 60.5 C 18.289062 60.5 16.5 62.289062 16.5 64.5 C 16.5 64.691406 16.53125 64.875 16.554688 65.058594 C 16.128906 64.714844 15.59375 64.5 15 64.5 C 13.773438 64.5 12.753906 65.386719 12.546875 66.554688 C 12.367188 66.527344 12.1875 66.5 12 66.5 C 10.066406 66.5 8.5 68.066406 8.5 70 C 8.5 71.933594 10.066406 73.5 12 73.5 C 13.933594 73.5 19.5 73.5 19.5 73.5 L 19.5 74 L 26.5 74 Z M 26.5 73.5 "/>
<path style=" stroke:none;fill-rule:nonzero;fill:rgb(27.843139%,16.862746%,16.078432%);fill-opacity:1;" d="M 28.25 69 C 28.113281 69 28 68.886719 28 68.75 C 28 67.527344 28.996094 66.53125 30.21875 66.53125 C 30.253906 66.539062 30.953125 66.53125 31.460938 66.667969 C 31.59375 66.703125 31.675781 66.839844 31.636719 66.972656 C 31.601562 67.109375 31.464844 67.1875 31.332031 67.148438 C 30.886719 67.03125 30.230469 67.03125 30.21875 67.03125 C 29.269531 67.03125 28.5 67.804688 28.5 68.75 C 28.5 68.886719 28.386719 69 28.25 69 Z M 21.5 73 C 21.222656 73 21 73.222656 21 73.5 C 21 73.777344 21.222656 74 21.5 74 C 21.777344 74 22 73.777344 22 73.5 C 22 73.222656 21.777344 73 21.5 73 Z M 21.5 73 "/>
<path style=" stroke:none;fill-rule:nonzero;fill:rgb(27.843139%,16.862746%,16.078432%);fill-opacity:1;" d="M 30 74 L 26.5 74 C 26.222656 74 26 73.777344 26 73.5 C 26 73.222656 26.222656 73 26.5 73 L 30 73 C 31.652344 73 33 71.652344 33 70 C 33 68.503906 31.875 67.230469 30.382812 67.039062 C 30.246094 67.023438 30.128906 66.953125 30.046875 66.84375 C 29.964844 66.738281 29.929688 66.601562 29.953125 66.46875 C 29.976562 66.3125 30 66.160156 30 66 C 30 64.347656 28.652344 63 27 63 C 26.148438 63 25.363281 63.355469 24.78125 64 C 24.65625 64.140625 24.460938 64.199219 24.28125 64.148438 C 24.097656 64.097656 23.960938 63.953125 23.921875 63.769531 C 23.578125 62.164062 22.140625 61 20.5 61 C 18.570312 61 17 62.570312 17 64.5 C 17 64.644531 17.019531 64.78125 17.039062 64.917969 C 17.070312 65.121094 16.976562 65.355469 16.800781 65.457031 C 16.621094 65.558594 16.402344 65.574219 16.242188 65.449219 C 15.878906 65.15625 15.449219 65 15 65 C 14.035156 65 13.207031 65.691406 13.035156 66.644531 C 12.988281 66.910156 12.742188 67.089844 12.46875 67.050781 C 12.3125 67.023438 12.160156 67 12 67 C 10.347656 67 9 68.347656 9 70 C 9 71.652344 10.347656 73 12 73 L 19.5 73 C 19.777344 73 20 73.222656 20 73.5 C 20 73.777344 19.777344 74 19.5 74 L 12 74 C 9.792969 74 8 72.207031 8 70 C 8 67.792969 9.792969 66 12 66 C 12.058594 66 12.117188 66.003906 12.175781 66.007812 C 12.589844 64.820312 13.710938 64 15 64 C 15.347656 64 15.6875 64.0625 16.011719 64.179688 C 16.175781 61.847656 18.125 60 20.5 60 C 22.332031 60 23.964844 61.128906 24.652344 62.773438 C 25.332031 62.277344 26.15625 62 27 62 C 29.207031 62 31 63.792969 31 66 C 31 66.046875 31 66.09375 30.996094 66.140625 C 32.738281 66.589844 34 68.167969 34 70 C 34 72.207031 32.207031 74 30 74 Z M 30 74 "/>
<path style=" stroke:none;fill-rule:nonzero;fill:rgb(27.843139%,16.862746%,16.078432%);fill-opacity:1;" d="M 24.5 73 C 24.339844 73 23.660156 73 23.5 73 C 23.222656 73 23 73.222656 23 73.5 C 23 73.777344 23.222656 74 23.5 74 C 23.660156 74 24.339844 74 24.5 74 C 24.777344 74 25 73.777344 25 73.5 C 25 73.222656 24.777344 73 24.5 73 Z M 24.5 73 "/>
<path style=" stroke:none;fill-rule:nonzero;fill:rgb(27.843139%,16.862746%,16.078432%);fill-opacity:1;" d="M 43.195312 51.28125 C 45.300781 51.28125 47.015625 53.496094 47.015625 56.214844 C 47.015625 58.933594 45.300781 61.144531 43.195312 61.144531 C 41.085938 61.144531 39.371094 58.933594 39.371094 56.214844 C 39.371094 53.492188 41.085938 51.28125 43.195312 51.28125 M 43.195312 49.929688 C 40.363281 49.929688 38.066406 52.742188 38.066406 56.214844 C 38.066406 59.6875 40.359375 62.5 43.195312 62.5 C 46.027344 62.5 48.320312 59.6875 48.320312 56.214844 C 48.320312 52.742188 46.027344 49.929688 43.195312 49.929688 Z M 43.195312 49.929688 "/>
<path style=" stroke:none;fill-rule:nonzero;fill:rgb(27.843139%,16.862746%,16.078432%);fill-opacity:1;" d="M 60.90625 51.28125 C 63.015625 51.28125 64.730469 53.496094 64.730469 56.214844 C 64.730469 58.933594 63.015625 61.144531 60.90625 61.144531 C 58.800781 61.144531 57.085938 58.933594 57.085938 56.214844 C 57.085938 53.492188 58.800781 51.28125 60.90625 51.28125 M 60.90625 49.929688 C 58.074219 49.929688 55.777344 52.742188 55.777344 56.214844 C 55.777344 59.6875 58.074219 62.5 60.90625 62.5 C 63.738281 62.5 66.035156 59.6875 66.035156 56.214844 C 66.035156 52.742188 63.738281 49.929688 60.90625 49.929688 Z M 60.90625 49.929688 "/>
<path style=" stroke:none;fill-rule:nonzero;fill:rgb(27.843139%,16.862746%,16.078432%);fill-opacity:1;" d="M 59.140625 42.601562 C 59.097656 42.601562 59.050781 42.597656 59.007812 42.582031 C 57.007812 42.023438 53.898438 41.714844 51.101562 41.796875 C 50.828125 41.792969 50.59375 41.589844 50.585938 41.3125 C 50.578125 41.035156 50.796875 40.808594 51.070312 40.796875 C 53.972656 40.714844 57.1875 41.035156 59.277344 41.621094 C 59.542969 41.695312 59.695312 41.96875 59.621094 42.234375 C 59.5625 42.457031 59.359375 42.601562 59.140625 42.601562 Z M 59.140625 42.601562 "/>
<path style=" stroke:none;fill-rule:nonzero;fill:rgb(27.843139%,16.862746%,16.078432%);fill-opacity:1;" d="M 44.769531 42.648438 C 44.546875 42.648438 44.34375 42.5 44.285156 42.273438 C 44.214844 42.007812 44.375 41.734375 44.640625 41.664062 C 45.769531 41.367188 46.894531 41.132812 47.984375 40.96875 C 48.257812 40.933594 48.511719 41.113281 48.554688 41.386719 C 48.59375 41.660156 48.40625 41.914062 48.132812 41.957031 C 47.074219 42.117188 45.988281 42.34375 44.894531 42.628906 C 44.855469 42.640625 44.8125 42.648438 44.769531 42.648438 Z M 44.769531 42.648438 "/>
</g>
</svg>
