<svg xmlns="http://www.w3.org/2000/svg" xmlns:xlink="http://www.w3.org/1999/xlink" width="500" zoomAndPan="magnify" viewBox="0 0 375 374.999991" height="500" preserveAspectRatio="xMidYMid meet" version="1.0"><defs><g/></defs><path fill="#d6f2fa" d="M 187.5 0 C 83.957031 0 0 83.957031 0 187.5 C 0 291.042969 83.957031 375 187.5 375 C 291.058594 375 375 291.042969 375 187.5 C 375 83.957031 291.058594 0 187.5 0 Z M 187.5 0 " fill-opacity="1" fill-rule="evenodd"/><path fill="#99dbf0" d="M 187.5 0 C 83.957031 0 0 83.957031 0 187.5 C 0 291.042969 83.957031 375 187.5 375 L 187.820312 374.988281 L 187.820312 0.0117188 Z M 187.5 0 " fill-opacity="1" fill-rule="evenodd"/><path fill="#99dbf0" d="M 372.53125 157.066406 L 2.484375 157.066406 C 0.875 166.976562 0.00390625 177.132812 0.00390625 187.5 C 0.00390625 291.042969 83.960938 375 187.488281 375 C 291.046875 375 375.003906 291.042969 375.003906 187.5 C 375.003906 177.132812 374.144531 166.976562 372.53125 157.066406 Z M 372.53125 157.066406 " fill-opacity="1" fill-rule="evenodd"/><path fill="#c2e8f5" d="M 0.0234375 188.34375 C 0.472656 291.507812 84.234375 375 187.5 375 C 290.757812 375 374.53125 291.507812 374.984375 188.34375 Z M 0.0234375 188.34375 " fill-opacity="1" fill-rule="evenodd"/><path fill="#d6f2fa" d="M 19.574219 270.964844 C 50.285156 332.621094 113.933594 374.992188 187.5 374.992188 C 261.066406 374.992188 324.714844 332.617188 355.425781 270.964844 Z M 19.574219 270.964844 " fill-opacity="1" fill-rule="evenodd"/><path fill="#1f295c" d="M 333.726562 161.660156 L 41.285156 161.660156 C 37.859375 161.660156 35.078125 164.457031 35.078125 167.859375 L 35.078125 167.871094 C 35.078125 171.277344 37.859375 174.070312 41.285156 174.070312 L 333.726562 174.070312 C 337.144531 174.070312 339.9375 171.277344 339.9375 167.871094 L 339.9375 167.859375 C 339.9375 164.457031 337.144531 161.660156 333.726562 161.660156 Z M 333.726562 161.660156 " fill-opacity="1" fill-rule="evenodd"/><path fill="#1f295c" d="M 187.515625 89 L 187.503906 89 C 184.097656 89 181.304688 91.792969 181.304688 95.199219 L 181.304688 135.964844 C 181.304688 139.382812 184.097656 142.164062 187.503906 142.164062 L 187.515625 142.164062 C 190.917969 142.164062 193.714844 139.382812 193.714844 135.964844 L 193.714844 95.199219 C 193.710938 91.792969 190.917969 89 187.515625 89 Z M 187.515625 89 " fill-opacity="1" fill-rule="evenodd"/><path fill="#29baed" d="M 121.199219 256.148438 C 86.296875 256.148438 56.347656 277.332031 43.476562 307.539062 C 77.875 348.757812 129.625 374.996094 187.5 374.996094 C 191.195312 374.996094 194.835938 374.882812 198.46875 374.667969 C 203.066406 364.242188 205.621094 352.722656 205.621094 340.59375 C 205.621094 293.960938 167.832031 256.144531 121.195312 256.144531 Z M 121.199219 256.148438 " fill-opacity="1" fill-rule="evenodd"/><path fill="#99dbf0" d="M 320.28125 286.359375 C 274.332031 286.359375 236.96875 323.03125 235.867188 368.691406 C 281.105469 356.644531 319.617188 328.117188 344.574219 289.910156 C 336.882812 287.613281 328.730469 286.359375 320.285156 286.359375 Z M 320.28125 286.359375 " fill-opacity="1" fill-rule="evenodd"/><path fill="#00adf0" d="M 223.476562 300.089844 C 199.210938 300.089844 179.539062 319.746094 179.539062 344.015625 C 179.539062 356.074219 184.40625 366.992188 192.257812 374.929688 C 218.179688 374.289062 242.769531 368.378906 265.050781 358.25 C 266.578125 353.785156 267.414062 349 267.414062 344.015625 C 267.414062 319.746094 247.746094 300.089844 223.476562 300.089844 Z M 223.476562 300.089844 " fill-opacity="1" fill-rule="evenodd"/><path fill="#219ed9" d="M 31.261719 284.976562 C 29.960938 284.976562 28.695312 285.042969 27.417969 285.15625 C 39.71875 305.269531 55.703125 322.886719 74.4375 337.066406 C 74.929688 334.425781 75.199219 331.695312 75.199219 328.914062 C 75.199219 304.65625 55.53125 284.976562 31.261719 284.976562 Z M 31.261719 284.976562 " fill-opacity="1" fill-rule="evenodd"/><path fill="#1f295c" d="M 236.675781 126.660156 L 138.316406 126.660156 C 134.898438 126.660156 132.105469 129.449219 132.105469 132.867188 L 132.105469 132.871094 C 132.105469 136.28125 134.902344 139.070312 138.316406 139.070312 L 236.675781 139.070312 C 240.09375 139.070312 242.894531 136.28125 242.894531 132.871094 L 242.894531 132.867188 C 242.894531 129.449219 240.09375 126.660156 236.675781 126.660156 Z M 236.675781 126.660156 " fill-opacity="1" fill-rule="evenodd"/><path fill="#219ed9" d="M 187.5 125.332031 C 160.835938 125.332031 139.210938 146.945312 139.210938 173.628906 C 139.210938 200.296875 160.835938 221.917969 187.5 221.917969 C 214.171875 221.917969 235.796875 200.296875 235.796875 173.628906 C 235.796875 146.945312 214.171875 125.332031 187.5 125.332031 Z M 187.5 125.332031 " fill-opacity="1" fill-rule="evenodd"/><path fill="#99dbf0" d="M 185.734375 171.40625 C 179.367188 171.40625 174.207031 176.5625 174.207031 182.929688 C 174.207031 189.292969 179.367188 194.449219 185.734375 194.449219 C 192.09375 194.449219 197.25 189.292969 197.25 182.929688 C 197.253906 176.5625 192.09375 171.40625 185.734375 171.40625 Z M 185.734375 171.40625 " fill-opacity="1" fill-rule="evenodd"/><path fill="#055499" d="M 261.28125 169.632812 C 252.460938 169.632812 245.316406 176.777344 245.316406 185.585938 C 245.316406 194.394531 252.460938 201.539062 261.28125 201.539062 C 270.078125 201.539062 277.222656 194.394531 277.222656 185.585938 C 277.222656 176.777344 270.078125 169.632812 261.28125 169.632812 Z M 113.726562 169.632812 C 104.910156 169.632812 97.777344 176.777344 97.777344 185.585938 C 97.777344 194.394531 104.910156 201.539062 113.726562 201.539062 C 122.535156 201.539062 129.679688 194.394531 129.679688 185.585938 C 129.679688 176.777344 122.535156 169.632812 113.726562 169.632812 Z M 113.726562 169.632812 " fill-opacity="1" fill-rule="evenodd"/><path fill="#99dbf0" d="M 204.792969 144.824219 L 166.679688 144.824219 C 163.273438 144.824219 160.480469 147.617188 160.480469 151.027344 L 160.480469 151.03125 C 160.480469 154.449219 163.273438 157.230469 166.679688 157.230469 L 204.792969 157.230469 C 208.210938 157.230469 211.003906 154.449219 211.003906 151.03125 L 211.003906 151.027344 C 211.003906 147.617188 208.210938 144.824219 204.792969 144.824219 Z M 204.792969 144.824219 " fill-opacity="1" fill-rule="evenodd"/><g fill="#004aad" fill-opacity="1"><g transform="translate(69.926902, 306.892699)"><g><path d="M 72.128906 -13.191406 C 71.757812 -14.054688 72.253906 -13.6875 71.882812 -14.054688 C 71.144531 -15.042969 70.402344 -15.660156 69.539062 -16.152344 L 67.691406 -17.386719 C 65.964844 -18 64.609375 -18.496094 62.636719 -18.988281 L 58.9375 -19.726562 L 59.554688 -21.578125 C 59.800781 -21.824219 59.921875 -22.195312 60.046875 -22.5625 C 60.414062 -23.550781 60.539062 -24.414062 61.03125 -25.398438 C 61.15625 -25.890625 61.402344 -26.507812 61.402344 -27.25 C 62.019531 -28.234375 62.386719 -29.34375 62.757812 -30.578125 L 63.25 -31.6875 L 64.976562 -37.976562 C 65.101562 -38.714844 65.347656 -39.457031 65.71875 -40.070312 C 65.839844 -40.933594 66.210938 -41.796875 66.582031 -42.90625 C 66.949219 -44.265625 67.320312 -45.25 67.8125 -46.976562 C 67.8125 -47.222656 67.9375 -47.714844 68.058594 -47.839844 C 68.800781 -48.457031 68.058594 -49.074219 67.9375 -49.8125 C 67.691406 -50.675781 68.058594 -51.292969 68.308594 -51.910156 L 68.800781 -53.140625 C 68.800781 -53.386719 68.800781 -53.632812 68.675781 -53.882812 C 68.921875 -54.746094 68.429688 -55.359375 67.9375 -55.605469 C 66.949219 -55.976562 66.210938 -56.101562 65.59375 -56.839844 C 65.347656 -56.964844 65.222656 -57.085938 65.101562 -57.085938 C 64.238281 -57.210938 63.746094 -56.964844 63.003906 -56.46875 C 63.003906 -56.347656 62.757812 -56.222656 62.511719 -56.347656 C 61.527344 -56.46875 60.664062 -55.730469 59.921875 -54.746094 L 57.578125 -52.15625 L 55.730469 -51.046875 C 51.292969 -47.222656 48.949219 -43.648438 44.511719 -39.085938 C 40.441406 -34.769531 36.621094 -30.699219 32.304688 -26.015625 C 32.058594 -25.277344 31.316406 -25.152344 31.195312 -24.535156 C 30.824219 -23.796875 30.207031 -23.304688 29.714844 -22.808594 C 29.097656 -22.441406 28.851562 -21.207031 27.867188 -21.332031 L 26.878906 -20.835938 C 25.152344 -20.835938 24.042969 -20.835938 22.316406 -20.714844 C 19.359375 -20.46875 16.398438 -20.714844 13.191406 -20.34375 C 12.824219 -20.34375 12.082031 -19.972656 11.589844 -19.605469 C 10.605469 -18.496094 11.960938 -15.660156 12.578125 -15.414062 C 13.316406 -15.289062 13.933594 -15.535156 14.550781 -15.289062 C 16.027344 -15.414062 17.261719 -15.660156 18.863281 -15.660156 L 21.699219 -15.660156 C 22.070312 -15.78125 24.042969 -15.90625 24.535156 -15.90625 L 22.933594 -13.6875 L 22.316406 -12.578125 C 21.824219 -11.835938 21.332031 -11.464844 20.960938 -10.851562 L 17.753906 -5.796875 C 17.261719 -5.054688 16.769531 -4.316406 16.523438 -3.699219 L 15.042969 -1.480469 L 14.054688 -0.125 C 14.054688 0.125 13.6875 0.492188 13.4375 1.234375 L 12.824219 1.726562 L 12.453125 2.710938 C 12.082031 4.070312 10.605469 6.289062 10.605469 6.289062 C 10.355469 7.027344 9.863281 7.890625 9.371094 8.753906 C 8.382812 11.714844 7.027344 14.550781 6.410156 17.878906 C 6.042969 20.714844 5.917969 23.058594 6.65625 25.769531 C 6.78125 25.890625 7.027344 26.015625 7.273438 26.140625 C 7.273438 25.890625 7.398438 25.644531 7.398438 25.277344 C 7.519531 25.03125 7.398438 24.535156 7.519531 24.042969 L 7.890625 22.195312 L 8.382812 19.480469 C 8.382812 18.742188 9.246094 16.273438 9.371094 15.289062 L 10.851562 12.328125 L 11.21875 11.464844 L 11.34375 10.605469 C 11.589844 9.988281 11.835938 9.617188 12.328125 8.878906 C 12.578125 8.507812 12.824219 7.769531 13.070312 7.519531 C 13.191406 6.90625 13.316406 6.289062 13.6875 5.546875 L 13.6875 5.300781 C 14.550781 4.933594 15.289062 4.808594 15.660156 3.574219 L 15.414062 2.835938 C 15.90625 3.082031 16.152344 2.960938 16.398438 2.464844 C 16.644531 2.097656 16.769531 1.726562 17.261719 1.355469 C 17.386719 1.234375 17.386719 0.863281 17.386719 0.492188 L 17.753906 -0.246094 C 17.753906 -0.246094 18 -0.246094 18 -0.371094 L 19.851562 -2.21875 C 19.972656 -2.710938 20.34375 -3.328125 20.960938 -3.820312 C 21.207031 -4.191406 21.578125 -4.316406 21.578125 -4.933594 C 21.699219 -5.671875 21.945312 -6.164062 22.5625 -6.289062 C 22.6875 -6.289062 22.808594 -6.535156 22.933594 -6.65625 C 22.808594 -7.152344 23.179688 -7.152344 23.304688 -7.273438 C 24.042969 -7.890625 24.535156 -8.015625 24.535156 -9.125 L 25.398438 -9.742188 C 26.386719 -10.972656 26.753906 -12.207031 27.867188 -13.6875 C 27.988281 -13.808594 27.988281 -13.933594 28.113281 -14.179688 C 29.589844 -15.660156 29.960938 -15.90625 30.085938 -16.273438 C 30.699219 -16.152344 31.195312 -16.398438 31.6875 -16.398438 C 32.425781 -16.398438 33.042969 -16.523438 33.535156 -16.398438 L 36.621094 -16.273438 L 44.511719 -16.273438 L 50.675781 -15.90625 L 51.785156 -15.90625 L 52.523438 -15.660156 C 52.15625 -13.808594 50.796875 -9.617188 50.429688 -7.769531 C 50.058594 -5.546875 49.6875 -3.945312 49.320312 -1.601562 L 48.949219 0.988281 C 48.824219 2.960938 48.578125 6.410156 49.320312 8.382812 C 50.550781 13.5625 52.894531 16.152344 58.320312 15.535156 C 60.292969 15.414062 61.773438 14.179688 62.882812 12.453125 L 62.511719 12.082031 C 61.894531 13.070312 58.691406 13.808594 56.59375 11.714844 C 55.730469 10.972656 54.867188 9.617188 54.746094 8.382812 C 53.882812 6.042969 54.003906 3.699219 54.128906 1.601562 L 54.25 -0.492188 C 54.375 -1.355469 54.621094 -2.21875 54.867188 -3.207031 L 55.113281 -5.425781 C 55.113281 -5.546875 55.238281 -6.535156 55.484375 -6.78125 L 55.730469 -7.890625 L 56.46875 -9.742188 C 56.46875 -10.605469 57.085938 -12.207031 56.964844 -13.070312 L 57.828125 -15.78125 L 62.019531 -15.414062 L 62.757812 -15.289062 L 65.71875 -14.425781 L 68.058594 -14.054688 L 69.046875 -13.5625 L 71.265625 -12.945312 C 71.757812 -12.699219 72.253906 -12.945312 72.128906 -13.191406 Z M 53.757812 -19.972656 L 50.429688 -20.34375 C 49.074219 -20.46875 48.210938 -20.46875 47.222656 -20.589844 C 46.113281 -20.46875 45.003906 -20.589844 44.140625 -20.835938 C 43.152344 -20.714844 42.292969 -20.835938 41.304688 -20.714844 C 40.070312 -20.835938 38.839844 -20.714844 37.605469 -21.082031 C 36.742188 -20.960938 35.632812 -21.082031 34.398438 -20.960938 C 36.003906 -22.808594 37.484375 -24.535156 39.085938 -26.507812 L 40.195312 -28.113281 C 40.6875 -28.726562 41.179688 -29.34375 41.796875 -29.714844 C 42.042969 -30.453125 42.414062 -30.578125 42.90625 -30.949219 C 43.523438 -31.8125 44.632812 -32.425781 45.25 -33.289062 C 45.742188 -34.277344 46.359375 -34.769531 47.222656 -35.386719 C 47.59375 -35.632812 48.210938 -36.25 48.457031 -36.621094 C 48.949219 -37.234375 49.566406 -37.730469 49.933594 -38.097656 C 50.675781 -39.207031 51.292969 -40.070312 52.15625 -40.6875 C 53.140625 -41.675781 54.003906 -42.292969 55.238281 -43.277344 C 55.855469 -44.015625 56.59375 -44.878906 57.457031 -45.621094 C 58.195312 -46.238281 58.9375 -46.976562 59.304688 -47.839844 C 60.046875 -48.457031 62.265625 -50.429688 62.757812 -51.167969 L 63.375 -51.167969 C 63.003906 -49.8125 62.019531 -46.605469 61.894531 -45.375 C 61.15625 -44.015625 60.664062 -42.167969 60.167969 -40.6875 L 58.320312 -34.398438 L 57.332031 -31.195312 L 56.839844 -29.46875 C 56.59375 -28.976562 56.46875 -28.480469 56.222656 -27.988281 C 55.855469 -26.753906 55.484375 -25.277344 55.113281 -24.167969 Z M 53.757812 -19.972656 "/></g></g></g><g fill="#004aad" fill-opacity="1"><g transform="translate(144.522063, 306.892699)"><g><path d="M 5.054688 9.988281 C 6.289062 9.246094 7.769531 9 9.246094 8.136719 C 9.988281 7.398438 10.972656 6.535156 11.589844 5.425781 C 12.824219 4.683594 13.6875 3.453125 14.550781 2.464844 C 15.164062 1.726562 16.027344 0.988281 16.644531 0.125 C 17.386719 -1.109375 18.25 -2.097656 18.496094 -3.699219 C 18.496094 -3.699219 18.617188 -3.820312 18.863281 -3.820312 C 19.851562 -4.316406 20.097656 -5.300781 20.46875 -6.164062 C 20.835938 -6.78125 20.960938 -7.398438 22.441406 -10.972656 L 24.042969 -15.164062 C 24.414062 -16.398438 24.289062 -17.753906 23.671875 -18.617188 C 23.425781 -18.742188 23.425781 -18.988281 23.304688 -19.234375 C 22.933594 -19.480469 22.808594 -20.097656 22.5625 -20.097656 C 22.195312 -20.097656 21.824219 -19.480469 21.578125 -18.988281 C 20.960938 -17.632812 20.34375 -16.398438 19.972656 -15.414062 C 18.863281 -13.5625 17.753906 -11.835938 16.769531 -9.988281 C 15.90625 -8.015625 14.671875 -6.164062 13.070312 -4.4375 C 12.453125 -3.574219 11.714844 -2.464844 10.972656 -1.847656 C 10.234375 -0.738281 9.246094 0.371094 8.136719 1.234375 C 7.152344 1.972656 6.164062 3.082031 4.933594 3.082031 C 5.300781 1.355469 5.425781 -0.246094 5.671875 -1.972656 C 6.535156 -4.5625 7.027344 -6.90625 7.644531 -9.492188 C 8.015625 -11.960938 8.753906 -14.425781 8.507812 -16.890625 C 8.261719 -17.136719 8.015625 -17.386719 8.015625 -17.632812 C 7.769531 -17.878906 7.890625 -18.25 7.769531 -18.496094 C 6.90625 -18.742188 5.796875 -19.605469 5.179688 -19.480469 L 4.070312 -14.917969 C 3.699219 -13.808594 3.574219 -12.945312 3.453125 -11.960938 C 3.082031 -10.851562 2.710938 -9.371094 2.710938 -8.136719 C 2.34375 -7.152344 1.726562 -5.917969 1.726562 -4.5625 C 1.601562 -3.574219 1.109375 -2.835938 0.863281 -1.601562 C 0.988281 0.246094 0.738281 2.097656 0.738281 4.070312 C 0.738281 4.316406 0.863281 4.933594 0.988281 5.671875 C 1.480469 6.535156 1.355469 7.644531 2.21875 7.644531 C 2.34375 7.644531 3.082031 9 3.082031 9.125 Z M 5.054688 9.988281 "/></g></g></g><g fill="#004aad" fill-opacity="1"><g transform="translate(172.633978, 306.892699)"><g><path d="M 45.003906 -58.195312 C 31.070312 -53.265625 14.917969 -42.292969 8.507812 -32.179688 C 6.410156 -28.976562 7.152344 -22.5625 13.316406 -22.441406 C 14.300781 -22.5625 15.289062 -23.058594 16.644531 -23.917969 C 15.414062 -24.167969 14.671875 -24.167969 14.054688 -24.414062 C 13.316406 -24.535156 12.824219 -24.90625 12.945312 -25.644531 C 13.070312 -26.753906 13.4375 -27.742188 14.179688 -28.605469 C 16.644531 -31.6875 18.988281 -34.523438 21.824219 -37.234375 C 28.359375 -43.769531 39.703125 -50.183594 48.210938 -52.894531 C 63.621094 -57.949219 75.582031 -52.523438 68.675781 -41.179688 C 66.949219 -38.222656 64.609375 -35.507812 62.019531 -33.167969 C 55.855469 -27.617188 49.441406 -22.933594 42.292969 -19.109375 C 38.222656 -16.890625 27.988281 -13.316406 24.78125 -12.578125 C 30.085938 -24.535156 33.535156 -31.441406 33.042969 -32.921875 C 32.058594 -34.523438 31.070312 -35.015625 29.222656 -34.894531 C 27.371094 -32.921875 26.507812 -30.453125 25.277344 -28.113281 C 23.179688 -23.796875 21.824219 -19.234375 20.097656 -14.671875 C 19.480469 -13.316406 19.359375 -11.589844 18.496094 -10.480469 C 17.507812 -9.125 18.125 -7.769531 17.507812 -6.410156 C 16.769531 -4.316406 16.523438 -2.21875 16.027344 -0.125 C 15.414062 4.070312 14.671875 8.507812 14.671875 12.824219 C 14.550781 15.414062 14.796875 18.371094 16.273438 20.46875 C 16.523438 20.835938 16.273438 21.332031 17.015625 21.332031 C 19.234375 20.097656 18.371094 18.617188 18.863281 17.015625 C 20.34375 17.136719 21.453125 17.386719 22.316406 17.632812 C 23.550781 18.125 24.535156 18.371094 25.890625 18.742188 C 26.753906 18.988281 27.867188 19.234375 28.976562 19.359375 C 29.960938 19.605469 33.042969 19.605469 34.648438 19.726562 C 34.769531 19.726562 36.003906 19.851562 36.125 19.726562 C 38.097656 19.480469 40.070312 19.605469 42.042969 19.234375 C 46.605469 18.496094 49.195312 17.878906 53.632812 15.414062 C 56.101562 14.054688 58.074219 12.699219 60.167969 10.851562 C 60.292969 10.851562 60.167969 10.605469 60.292969 10.234375 C 60.785156 9.988281 61.277344 9.492188 61.773438 9 C 66.828125 2.835938 66.335938 -4.5625 61.648438 -9.246094 C 56.964844 -13.933594 50.675781 -15.660156 44.015625 -14.917969 L 44.015625 -15.164062 C 48.578125 -17.878906 51.910156 -19.972656 55.605469 -22.070312 C 56.59375 -22.6875 57.578125 -23.179688 58.320312 -23.917969 C 59.304688 -24.78125 60.414062 -25.523438 60.664062 -26.753906 C 61.03125 -26.753906 61.402344 -26.753906 61.648438 -26.878906 C 62.636719 -27.617188 63.621094 -28.234375 64.363281 -28.851562 C 65.347656 -30.207031 66.949219 -31.070312 67.195312 -32.921875 C 67.195312 -33.042969 67.320312 -33.167969 67.566406 -33.167969 L 68.675781 -33.785156 C 84.707031 -50.304688 68.058594 -66.335938 45.003906 -58.195312 Z M 49.6875 -10.605469 C 54.128906 -9.988281 56.59375 -8.507812 58.320312 -5.425781 C 60.664062 -1.109375 58.8125 4.4375 55.484375 7.890625 C 49.933594 13.5625 44.015625 15.289062 36.496094 15.78125 C 31.195312 16.152344 25.769531 14.671875 23.425781 14.054688 C 22.5625 13.808594 19.234375 12.824219 19.234375 10.355469 C 19.234375 7.519531 21.578125 -1.480469 22.070312 -3.328125 C 22.441406 -4.808594 22.6875 -5.796875 23.179688 -6.90625 C 23.796875 -7.027344 25.769531 -7.644531 27.25 -8.015625 C 33.414062 -9.492188 40.070312 -11.960938 49.6875 -10.605469 Z M 49.6875 -10.605469 "/></g></g></g><g fill="#004aad" fill-opacity="1"><g transform="translate(250.18827, 306.892699)"><g><path d="M 35.015625 -16.890625 C 31.933594 -15.78125 30.453125 -15.414062 28.605469 -14.671875 C 26.507812 -13.933594 24.289062 -13.316406 22.070312 -12.453125 C 21.945312 -12.578125 22.070312 -12.699219 22.070312 -12.824219 L 21.207031 -15.535156 C 20.589844 -16.769531 20.097656 -17.507812 19.359375 -18.125 C 19.109375 -18.25 18.617188 -18.25 18.496094 -18.371094 C 17.015625 -19.605469 15.289062 -19.605469 14.054688 -20.097656 C 13.808594 -20.222656 13.5625 -20.222656 13.4375 -20.34375 C 12.945312 -20.835938 12.699219 -21.453125 12.082031 -21.453125 C 11.097656 -21.453125 9.863281 -21.578125 8.753906 -21.082031 C 7.273438 -20.34375 6.042969 -19.359375 4.933594 -18.25 C 4.191406 -17.507812 3.699219 -16.027344 2.835938 -14.796875 C 2.710938 -14.796875 2.464844 -13.191406 2.21875 -12.453125 C 1.601562 -10.234375 0.492188 -7.890625 0.617188 -5.546875 C 0.738281 -3.574219 0.863281 -1.234375 2.21875 0.125 C 3.082031 1.234375 4.070312 2.097656 5.546875 2.34375 C 6.535156 2.835938 8.015625 2.835938 9.246094 2.960938 C 9.492188 3.082031 9.988281 3.082031 10.480469 2.960938 C 11.589844 2.589844 12.453125 2.34375 13.4375 1.726562 C 13.933594 1.726562 14.425781 1.480469 14.796875 1.234375 C 15.289062 0.617188 16.027344 0 16.644531 -0.617188 L 16.890625 -0.863281 C 18 -2.097656 18.617188 -3.328125 19.605469 -4.4375 C 19.726562 -4.5625 19.605469 -5.054688 19.726562 -5.179688 C 20.46875 -5.671875 20.46875 -6.410156 21.082031 -7.027344 C 21.082031 -7.027344 21.082031 -7.152344 21.082031 -7.152344 L 20.835938 -7.273438 C 20.835938 -7.769531 21.082031 -8.136719 21.207031 -8.507812 C 21.207031 -9 21.332031 -9.246094 21.945312 -9.246094 C 22.195312 -9.246094 22.441406 -9.371094 22.808594 -9.371094 C 24.042969 -9.492188 25.03125 -9.617188 26.386719 -10.234375 L 28.113281 -10.972656 C 28.726562 -11.21875 29.714844 -11.21875 29.839844 -11.960938 C 29.839844 -12.082031 29.960938 -12.082031 30.085938 -12.082031 L 30.949219 -12.082031 C 31.441406 -12.082031 31.441406 -12.578125 31.933594 -12.945312 C 32.675781 -13.4375 33.660156 -14.179688 35.140625 -15.660156 L 35.140625 -16.769531 Z M 17.507812 -11.960938 L 14.054688 -11.960938 C 13.316406 -11.960938 12.945312 -12.082031 12.699219 -12.699219 C 12.328125 -13.316406 12.207031 -14.054688 12.207031 -14.671875 C 12.328125 -15.78125 13.191406 -16.273438 13.933594 -16.890625 C 14.300781 -17.261719 14.917969 -17.507812 15.660156 -17.507812 C 16.027344 -17.632812 16.273438 -17.632812 16.523438 -17.261719 C 17.136719 -16.273438 17.261719 -15.042969 17.507812 -14.054688 C 17.507812 -13.316406 17.386719 -12.578125 17.507812 -11.960938 Z M 16.398438 -8.261719 C 15.78125 -7.398438 15.535156 -6.410156 15.042969 -5.671875 C 14.425781 -4.683594 13.6875 -3.820312 12.945312 -3.082031 C 11.589844 -1.726562 9.863281 -0.492188 8.015625 0 C 6.410156 0.617188 4.933594 0.125 4.808594 -0.863281 C 4.683594 -1.601562 4.4375 -2.21875 4.4375 -3.082031 C 4.4375 -4.316406 4.4375 -5.796875 4.933594 -7.027344 C 5.054688 -7.644531 5.054688 -8.261719 5.300781 -9 C 5.425781 -9.492188 5.671875 -10.234375 6.042969 -10.726562 C 6.65625 -11.960938 7.273438 -12.945312 7.890625 -14.425781 C 8.015625 -13.933594 8.261719 -13.4375 8.507812 -13.070312 C 8.753906 -12.328125 9.371094 -11.714844 10.234375 -11.21875 C 11.21875 -10.480469 12.578125 -9.863281 13.808594 -9.617188 C 14.425781 -9.371094 15.414062 -9.246094 16.027344 -9.246094 C 16.644531 -9 16.890625 -8.878906 16.398438 -8.261719 Z M 16.398438 -8.261719 "/></g></g></g><g fill="#004aad" fill-opacity="1"><g transform="translate(279.163242, 306.892699)"><g><path d="M 25.890625 -40.6875 C 26.632812 -40.8125 28.234375 -41.058594 28.726562 -40.6875 C 29.589844 -41.058594 30.824219 -41.058594 31.5625 -41.058594 L 31.8125 -41.179688 C 32.304688 -41.921875 34.152344 -42.042969 33.785156 -43.277344 C 33.414062 -43.523438 32.796875 -43.03125 32.550781 -42.90625 C 29.960938 -42.414062 29.222656 -42.539062 23.304688 -42.785156 C 22.808594 -42.660156 21.824219 -43.03125 20.097656 -43.152344 C 20.34375 -44.511719 20.714844 -45.125 21.578125 -47.59375 C 22.195312 -49.195312 23.179688 -50.796875 23.550781 -52.277344 C 24.78125 -54.375 25.769531 -56.59375 26.753906 -58.9375 C 27.125 -59.800781 27.496094 -60.414062 26.507812 -61.03125 C 26.261719 -61.402344 25.769531 -61.648438 25.644531 -62.019531 C 25.523438 -63.003906 24.414062 -63.25 23.425781 -63.867188 C 23.179688 -63.992188 22.933594 -63.992188 22.808594 -64.238281 C 22.316406 -64.363281 21.945312 -64.238281 21.699219 -63.5 C 21.453125 -62.636719 20.960938 -61.402344 20.714844 -60.539062 C 20.34375 -59.921875 19.972656 -59.675781 19.972656 -59.183594 C 19.234375 -57.703125 18.988281 -56.347656 18.371094 -54.992188 C 18 -53.511719 17.261719 -52.15625 16.890625 -50.921875 C 16.398438 -49.6875 15.90625 -48.578125 15.535156 -47.347656 C 14.796875 -46.113281 14.671875 -44.878906 13.933594 -43.648438 C 13.191406 -43.648438 12.328125 -43.648438 11.21875 -43.523438 L 8.878906 -43.769531 C 8.015625 -44.140625 7.152344 -43.894531 6.410156 -43.523438 C 6.164062 -43.402344 5.796875 -43.523438 5.671875 -43.523438 C 5.671875 -43.523438 5.179688 -43.648438 4.5625 -42.90625 C 3.945312 -42.660156 3.699219 -41.921875 3.699219 -41.550781 C 3.820312 -40.441406 5.179688 -40.195312 6.65625 -39.824219 C 9 -39.578125 10.726562 -39.457031 12.328125 -39.457031 L 11.097656 -35.632812 L 7.152344 -23.304688 C 7.273438 -23.179688 7.273438 -22.933594 7.398438 -22.808594 L 7.152344 -22.808594 C 6.90625 -22.195312 6.535156 -21.824219 6.535156 -21.332031 C 6.042969 -19.726562 6.042969 -18.371094 5.546875 -17.015625 L 4.683594 -13.5625 C 4.4375 -12.082031 3.945312 -10.605469 4.070312 -9.125 C 3.820312 -6.535156 3.453125 -4.070312 3.945312 -1.601562 C 4.4375 0.863281 4.933594 3.328125 6.289062 5.300781 C 6.535156 5.546875 6.78125 5.796875 7.027344 6.164062 C 8.015625 7.273438 8.507812 8.015625 9.617188 8.382812 C 11.34375 9.492188 11.714844 9.371094 13.5625 9.246094 L 13.316406 9.246094 C 14.054688 9.246094 14.300781 9.125 14.550781 8.753906 C 15.164062 7.769531 16.273438 7.027344 15.90625 5.796875 C 15.90625 5.796875 14.425781 6.535156 13.4375 6.410156 C 12.328125 6.535156 12.207031 6.410156 11.097656 5.796875 L 10.234375 4.808594 C 9.988281 4.5625 9.492188 4.070312 9.492188 3.207031 C 9.246094 2.34375 9 1.480469 9.125 0.617188 C 9.125 0.125 9.125 -0.246094 8.628906 -0.371094 C 9.125 -0.617188 8.753906 -0.738281 8.507812 -0.988281 C 9.125 -1.109375 9 -3.328125 8.507812 -3.945312 C 8.753906 -4.316406 9 -4.808594 9.125 -5.179688 C 8.878906 -5.300781 8.753906 -5.425781 8.878906 -5.425781 C 9 -5.546875 9.125 -5.796875 9.125 -6.042969 C 9.125 -7.027344 9.246094 -7.890625 9.617188 -9 C 9.492188 -9.371094 9.617188 -9.988281 9.742188 -10.480469 C 9.742188 -10.851562 10.109375 -11.34375 10.109375 -11.589844 C 10.109375 -12.207031 10.480469 -12.945312 10.109375 -13.5625 C 10.355469 -13.933594 10.726562 -14.300781 10.851562 -14.671875 C 10.972656 -16.027344 11.464844 -17.386719 11.835938 -18.742188 C 11.835938 -19.480469 12.207031 -20.222656 12.578125 -20.960938 C 12.699219 -22.070312 13.316406 -23.304688 13.5625 -24.535156 C 13.6875 -25.03125 13.933594 -25.523438 14.179688 -26.140625 C 14.425781 -26.878906 14.300781 -27.617188 14.671875 -28.480469 C 14.671875 -28.726562 14.550781 -28.976562 14.671875 -28.976562 C 15.414062 -29.222656 15.289062 -29.714844 15.164062 -29.960938 C 15.042969 -30.207031 15.289062 -30.453125 15.289062 -30.699219 C 15.78125 -31.195312 16.152344 -32.058594 16.027344 -32.550781 C 16.273438 -32.921875 16.523438 -33.167969 16.398438 -33.414062 C 16.152344 -33.90625 16.644531 -34.894531 17.136719 -35.140625 L 18.496094 -39.332031 L 19.851562 -39.332031 C 20.960938 -39.457031 22.808594 -39.332031 24.167969 -39.332031 C 25.769531 -39.457031 26.878906 -39.457031 27.496094 -39.457031 C 28.605469 -39.457031 29.714844 -39.578125 30.085938 -39.824219 L 31.933594 -40.070312 C 32.179688 -40.195312 32.304688 -40.316406 31.933594 -40.566406 C 29.46875 -40.316406 28.480469 -40.316406 23.671875 -40.195312 L 23.796875 -40.441406 Z M 25.890625 -40.6875 "/></g></g></g></svg>